<svg xmlns="http://www.w3.org/2000/svg" viewBox="0 0 87.965 50">
  <defs>
    <style>
      .cls-1 {
        fill: #e98024;
      }
    </style>
  </defs>
  <g id="Group_46" data-name="Group 46" transform="translate(-312.01 -3.36)">
    <g id="Group_45" data-name="Group 45" transform="translate(312.01 3.36)">
      <path id="Path_92" data-name="Path 92" class="cls-1" d="M335.354,44.982a13.838,13.838,0,0,1-7.457,3.454V53.36h-3.95V48.489a14.506,14.506,0,0,1-7.386-3.135A12.83,12.83,0,0,1,312.01,38.2l4.3-1.7a11.042,11.042,0,0,0,2.852,4.871,9.055,9.055,0,0,0,4.782,2.55V29.733l-.177-.053a22.256,22.256,0,0,1-7.687-4.694,9.1,9.1,0,0,1-2.6-6.624,9.433,9.433,0,0,1,1.275-4.729,10.42,10.42,0,0,1,3.649-3.7,12.631,12.631,0,0,1,5.544-1.753V3.36h3.95V8.284a11.726,11.726,0,0,1,9.617,7.634l-4.3,1.807a6.672,6.672,0,0,0-1.789-2.9,7.146,7.146,0,0,0-3.542-1.842V26.261a27.152,27.152,0,0,1,7.722,4.587,8.589,8.589,0,0,1,2.745,6.677A9.711,9.711,0,0,1,335.354,44.982ZM319.661,21.922a13.155,13.155,0,0,0,4.269,2.763V12.818a7.355,7.355,0,0,0-4.091,1.9,4.836,4.836,0,0,0-1.559,3.649A4.9,4.9,0,0,0,319.661,21.922Zm12.38,19.784a5.542,5.542,0,0,0,1.559-4.074,4.906,4.906,0,0,0-1.417-3.542,14.212,14.212,0,0,0-4.3-2.745V43.778A7.568,7.568,0,0,0,332.042,41.706Z" transform="translate(-312.01 -3.36)"/>
      <path id="Path_93" data-name="Path 93" class="cls-1" d="M340.544,14.374l-7.875,5.655-2.879-4.277L342.6,6.56h3.537V51.467h-5.572V14.374Z" transform="translate(-298.299 -3.998)"/>
      <path id="Path_94" data-name="Path 94" class="cls-1" d="M343.03,5.53h16.121A13.5,13.5,0,0,1,365.513,7.1a12.4,12.4,0,0,1,4.732,4.32,11.258,11.258,0,0,1,1.748,6.2,9.839,9.839,0,0,1-1.669,5.714,10.93,10.93,0,0,1-4.477,3.77v.255a11.224,11.224,0,0,1,5.518,3.888,10.313,10.313,0,0,1,2.14,6.46,11.981,11.981,0,0,1-1.846,6.558,12.8,12.8,0,0,1-4.948,4.536,14.22,14.22,0,0,1-6.676,1.63H343.05V5.53Zm16.121,19.44a7.5,7.5,0,0,0,6.657-3.79,6.8,6.8,0,0,0,.943-3.417,6.958,6.958,0,0,0-.9-3.358,7.6,7.6,0,0,0-2.572-2.729,6.991,6.991,0,0,0-3.849-1.06H348.332V24.97Zm1.178,20.382a7.461,7.461,0,0,0,4.045-1.119,7.79,7.79,0,0,0,2.749-2.906,7.6,7.6,0,0,0,.962-3.672,7.441,7.441,0,0,0-1-3.672,7.667,7.667,0,0,0-2.828-2.886,8.03,8.03,0,0,0-4.2-1.1H348.273V45.352Z" transform="translate(-285.541 -2.968)"/>
    </g>
  </g>
</svg>
