<svg xmlns="http://www.w3.org/2000/svg" viewBox="0 0 62.585 50">
  <defs>
    <style>
      .cls-1 {
        fill: #e98024;
      }
    </style>
  </defs>
  <g id="Group_43" data-name="Group 43" transform="translate(-79.01 -3.36)">
    <path id="Path_86" data-name="Path 86" class="cls-1" d="M102.354,44.982A13.838,13.838,0,0,1,94.9,48.436V53.36h-3.95V48.489a14.506,14.506,0,0,1-7.386-3.135A12.83,12.83,0,0,1,79.01,38.2l4.3-1.7a10.878,10.878,0,0,0,2.852,4.871,9.055,9.055,0,0,0,4.782,2.55V29.733l-.177-.053a22.256,22.256,0,0,1-7.687-4.694,9.1,9.1,0,0,1-2.6-6.624,9.434,9.434,0,0,1,1.275-4.729,10.42,10.42,0,0,1,3.649-3.7,12.63,12.63,0,0,1,5.544-1.753V3.36H94.9V8.284a11.726,11.726,0,0,1,9.617,7.634l-4.3,1.807a6.672,6.672,0,0,0-1.789-2.9,7.147,7.147,0,0,0-3.542-1.842V26.261a27.153,27.153,0,0,1,7.722,4.587,8.589,8.589,0,0,1,2.745,6.677A9.712,9.712,0,0,1,102.354,44.982ZM86.661,21.922a13.155,13.155,0,0,0,4.269,2.763V12.818a7.355,7.355,0,0,0-4.091,1.9,4.836,4.836,0,0,0-1.559,3.649A4.9,4.9,0,0,0,86.661,21.922Zm12.38,19.784a5.542,5.542,0,0,0,1.559-4.074,4.906,4.906,0,0,0-1.417-3.542,14.212,14.212,0,0,0-4.3-2.745V43.778A7.568,7.568,0,0,0,99.042,41.706Z" transform="translate(0 0)"/>
    <path id="Path_87" data-name="Path 87" class="cls-1" d="M105.765,52.093a15.811,15.811,0,0,1-5.563-4.157,16.043,16.043,0,0,1-3.422-6.865l5.017-2.015a12.519,12.519,0,0,0,3.716,6.529,9.308,9.308,0,0,0,6.466,2.456,10.013,10.013,0,0,0,7.305-2.75,9.6,9.6,0,0,0,2.813-7.179,9.9,9.9,0,0,0-2.771-7.2,9.661,9.661,0,0,0-7.2-2.855,9.8,9.8,0,0,0-4.555,1.113,9.577,9.577,0,0,0-3.485,3.044l-5.836-2.54L101.272,6.56h23.722V12h-19.04l-1.805,13.876.273.063a12.984,12.984,0,0,1,8.712-3.023A14.58,14.58,0,0,1,125.876,30.3a15.984,15.984,0,0,1-.021,15.577,14.876,14.876,0,0,1-5.668,5.563,16.065,16.065,0,0,1-8.04,2.036A15.687,15.687,0,0,1,105.765,52.093Z" transform="translate(13.704 -1.275)"/>
  </g>
</svg>
